<?xml version="1.0" encoding="iso-8859-1"?>
<!-- Generator: Adobe Illustrator 20.0.0, SVG Export Plug-In . SVG Version: 6.00 Build 0)  -->
<svg version="1.1" id="Capa_1" xmlns="http://www.w3.org/2000/svg" xmlns:xlink="http://www.w3.org/1999/xlink" x="0px" y="0px" width="40px" height="40px"
	 viewBox="0 0 64 64" style="enable-background:new 0 0 64 64;" xml:space="preserve">
<g>
	<path style="fill:#00BDFF;" d="M63.305,21.978c-0.398-0.398-0.937-0.621-1.5-0.621L42.746,21.36l0.003-19.067
		c0-0.563-0.223-1.102-0.621-1.501c-0.398-0.398-0.938-0.621-1.501-0.621L23.382,0.174c-1.171,0-2.12,0.95-2.121,2.121
		l-0.003,19.068L2.197,21.366c-1.171,0-2.121,0.95-2.121,2.121L0.073,40.74c0,0.563,0.223,1.102,0.621,1.501
		c0.398,0.398,0.937,0.621,1.5,0.621l19.059-0.003L21.25,61.925c0,0.563,0.224,1.102,0.621,1.501
		c0.398,0.398,0.938,0.622,1.501,0.621l17.246-0.003c1.171,0,2.12-0.95,2.121-2.121l0.003-19.067l19.061-0.003
		c1.171,0,2.12-0.95,2.121-2.121l0.003-17.253C63.926,22.916,63.703,22.376,63.305,21.978z"/>
</g>
<g>
	<g>
		<path style="fill:#FFFFFF;" d="M32.588,47.706c0.117-0.039,0.265-0.231,0.272-0.352c0.171-2.932-2.25-6.841-3.122-8.146
			c-0.702,0.28-1.385,0.732-2.016,1.421c0,0-1.259,0.845-1.706,4.951C28.372,48.63,31.299,48.131,32.588,47.706z"/>
		<path style="fill:#FFFFFF;" d="M41.929,42.502L38.07,41.56c0,0-0.11-0.931-1.204-1.314c-0.797-0.28-3.546-1.859-6.249-1.301
			c1.022,1.556,3.296,5.391,3.117,8.459c-0.027,0.482-0.41,0.981-0.871,1.133c-0.443,0.148-1.238,0.352-2.205,0.352
			c-1.4,0-3.159-0.431-4.744-2.087c-0.031,0.526-0.049,1.095-0.052,1.711c-0.018,3.176-4.052,6.188-4.052,6.188l-0.537,1.114
			c1.097,2.375,2.816,4.404,4.951,5.878c0.097-1.517,0.477-2.705,0.918-3.598c0.834-1.696,2.005-2.638,2.602-3.036
			c0.128-3.501,1.265-4.524,2.213-4.758c0.291-0.072,0.598-0.01,0.84,0.171c0.275,0.205,0.452,0.544,0.469,0.907
			c0.049,0.941,0.605,1.602,0.869,1.864c0.428,0.04,0.836,0.108,1.22,0.201l0.035-0.33l0.294-2.852
			c0.05-0.481,0.482-0.887,0.961-0.956c1.819-0.265,5.871-1.342,6.134-5.72C42.807,43.102,42.399,42.617,41.929,42.502z
			 M35.917,43.518c-0.272,0-0.493-0.22-0.493-0.493c0-0.272,0.221-0.493,0.493-0.493c0.273,0,0.493,0.22,0.493,0.493
			C36.409,43.298,36.19,43.518,35.917,43.518z"/>
		<path style="fill:#FFFFFF;" d="M38.072,56.553c-0.146-1.241-1.898-2.264-4.162-2.409c0,0-1.202-0.924-1.283-2.519
			c-0.013-0.242-0.194-0.482-0.428-0.424c-0.605,0.149-1.632,0.925-1.683,4.472c0,0-3.29,1.66-3.528,6.445
			c2.109,1.267,4.567,2.01,7.19,2.053l-0.029-0.685c-0.011-0.242,0.164-0.506,0.39-0.591l2.802-1.051c0,0,1.314,0.074,1.861-0.913
			c0.277-0.497,0.534-0.845,0.723-1.069c0.155-0.184,0.152-0.448-0.021-0.616C39.332,58.694,38.181,57.48,38.072,56.553z
			 M36.409,57.754c-0.272,0-0.492-0.22-0.492-0.492c0-0.273,0.221-0.493,0.492-0.493c0.273,0,0.493,0.22,0.493,0.493
			C36.903,57.534,36.682,57.754,36.409,57.754z"/>
	</g>
</g>
<g>
	<path style="fill:#FFFFFF;stroke:#FFFFFF;stroke-width:0.7;stroke-miterlimit:10;" d="M7.128,32.048
		c0.243,0.261,0.364,0.603,0.364,1.023c0,0.348-0.097,0.664-0.292,0.953c-0.194,0.287-0.461,0.516-0.8,0.684S5.681,34.96,5.26,34.96
		c-0.464,0-0.908-0.086-1.332-0.256c-0.424-0.171-0.705-0.397-0.844-0.68c-0.011-0.107-0.016-0.185-0.016-0.232
		c0-0.145,0.042-0.245,0.128-0.305c0.069-0.042,0.136-0.063,0.2-0.063c0.123,0,0.229,0.062,0.32,0.185
		c0.144,0.181,0.354,0.33,0.632,0.447c0.277,0.117,0.576,0.176,0.896,0.176c0.277,0,0.525-0.051,0.744-0.151
		c0.219-0.102,0.391-0.244,0.516-0.429c0.125-0.184,0.188-0.393,0.188-0.627c0-0.32-0.112-0.58-0.336-0.781
		c-0.224-0.2-0.515-0.3-0.872-0.3H4.956c-0.102,0-0.184-0.033-0.248-0.1c-0.064-0.066-0.096-0.153-0.096-0.26
		c0-0.112,0.032-0.203,0.096-0.272s0.146-0.104,0.248-0.104h0.408c0.288,0,0.527-0.092,0.716-0.276
		c0.189-0.184,0.284-0.422,0.284-0.716c0-0.309-0.108-0.542-0.324-0.7c-0.216-0.158-0.508-0.236-0.876-0.236
		c-0.555,0-0.998,0.197-1.328,0.592c-0.133,0.165-0.261,0.248-0.384,0.248c-0.059,0-0.123-0.021-0.192-0.064
		c-0.048-0.032-0.088-0.076-0.12-0.132c-0.032-0.056-0.048-0.116-0.048-0.18c0-0.059,0.021-0.123,0.064-0.192
		c0.219-0.309,0.496-0.553,0.832-0.732s0.728-0.268,1.176-0.268c0.384,0,0.728,0.069,1.032,0.208
		c0.304,0.139,0.542,0.33,0.712,0.572c0.171,0.243,0.256,0.511,0.256,0.804c0,0.31-0.088,0.582-0.264,0.816
		c-0.176,0.235-0.392,0.416-0.648,0.544C6.594,31.603,6.885,31.787,7.128,32.048z"/>
	<path style="fill:#FFFFFF;stroke:#FFFFFF;stroke-width:0.7;stroke-miterlimit:10;" d="M10.009,34.552
		c-0.483-0.271-0.857-0.652-1.124-1.14c-0.267-0.488-0.4-1.042-0.4-1.66s0.133-1.171,0.4-1.656c0.267-0.485,0.641-0.864,1.124-1.136
		c0.482-0.272,1.033-0.408,1.652-0.408c0.613,0,1.161,0.136,1.644,0.408c0.482,0.272,0.858,0.651,1.128,1.136
		c0.27,0.485,0.404,1.038,0.404,1.656s-0.134,1.172-0.404,1.66c-0.27,0.487-0.644,0.868-1.124,1.14s-1.029,0.408-1.648,0.408
		S10.491,34.823,10.009,34.552z M12.885,33.884c0.362-0.216,0.645-0.511,0.848-0.884c0.203-0.374,0.304-0.79,0.304-1.248
		s-0.102-0.875-0.304-1.248c-0.203-0.373-0.484-0.667-0.844-0.88s-0.77-0.32-1.228-0.32s-0.868,0.107-1.228,0.32
		s-0.641,0.507-0.844,0.88c-0.203,0.374-0.304,0.79-0.304,1.248S9.385,32.626,9.589,33c0.203,0.373,0.485,0.668,0.848,0.884
		c0.363,0.217,0.771,0.324,1.224,0.324S12.522,34.101,12.885,33.884z"/>
	<path style="fill:#FFFFFF;stroke:#FFFFFF;stroke-width:0.7;stroke-miterlimit:10;" d="M17.416,34.552
		c-0.483-0.271-0.857-0.652-1.124-1.14c-0.267-0.488-0.4-1.042-0.4-1.66s0.133-1.171,0.4-1.656c0.267-0.485,0.641-0.864,1.124-1.136
		c0.482-0.272,1.033-0.408,1.652-0.408c0.613,0,1.161,0.136,1.644,0.408c0.482,0.272,0.858,0.651,1.128,1.136
		c0.27,0.485,0.404,1.038,0.404,1.656s-0.134,1.172-0.404,1.66c-0.27,0.487-0.644,0.868-1.124,1.14s-1.029,0.408-1.648,0.408
		S17.899,34.823,17.416,34.552z M20.292,33.884c0.362-0.216,0.645-0.511,0.848-0.884c0.203-0.374,0.304-0.79,0.304-1.248
		s-0.102-0.875-0.304-1.248c-0.203-0.373-0.484-0.667-0.844-0.88s-0.77-0.32-1.228-0.32s-0.868,0.107-1.228,0.32
		s-0.641,0.507-0.844,0.88c-0.203,0.374-0.304,0.79-0.304,1.248s0.101,0.874,0.304,1.248c0.203,0.373,0.485,0.668,0.848,0.884
		c0.363,0.217,0.771,0.324,1.224,0.324S19.929,34.101,20.292,33.884z"/>
	<path style="fill:#FFFFFF;stroke:#FFFFFF;stroke-width:0.7;stroke-miterlimit:10;" d="M28.316,34.479
		c0,0.112-0.037,0.207-0.112,0.284s-0.171,0.116-0.288,0.116c-0.08,0-0.156-0.022-0.228-0.068c-0.072-0.045-0.124-0.107-0.156-0.188
		l-1.872-4.616l-1.92,4.616c-0.038,0.08-0.091,0.143-0.16,0.188c-0.069,0.046-0.144,0.068-0.224,0.068
		c-0.117,0-0.215-0.041-0.292-0.124s-0.116-0.181-0.116-0.292c0-0.053,0.013-0.115,0.04-0.184l2.248-5.368
		c0.08-0.187,0.21-0.28,0.392-0.28c0.192,0,0.323,0.093,0.392,0.28l2.256,5.384C28.303,34.365,28.316,34.427,28.316,34.479z"/>
	<path style="fill:#FFFFFF;stroke:#FFFFFF;stroke-width:0.7;stroke-miterlimit:10;" d="M34.188,34.472
		c0,0.112-0.04,0.208-0.12,0.288s-0.179,0.12-0.296,0.12c-0.08,0-0.155-0.022-0.228-0.068c-0.072-0.045-0.124-0.107-0.156-0.188
		l-0.448-1.12h-2.872l-0.456,1.12c-0.037,0.08-0.09,0.143-0.159,0.188c-0.069,0.046-0.145,0.068-0.225,0.068
		c-0.117,0-0.215-0.041-0.292-0.124s-0.116-0.181-0.116-0.292c0-0.053,0.014-0.115,0.04-0.184l2.248-5.368
		c0.08-0.187,0.211-0.28,0.393-0.28c0.191,0,0.322,0.093,0.392,0.28l2.256,5.384C34.175,34.365,34.188,34.424,34.188,34.472z
		 M30.348,32.815h2.313l-1.145-2.848L30.348,32.815z"/>
	<path style="fill:#FFFFFF;stroke:#FFFFFF;stroke-width:0.7;stroke-miterlimit:10;" d="M35.42,34.76
		c-0.08-0.08-0.12-0.179-0.12-0.296v-5.416c0-0.123,0.04-0.223,0.12-0.3c0.08-0.078,0.179-0.116,0.296-0.116
		c0.123,0,0.223,0.039,0.3,0.116c0.077,0.077,0.116,0.177,0.116,0.3v2.296h3.712v-2.296c0-0.123,0.04-0.223,0.12-0.3
		c0.08-0.078,0.179-0.116,0.296-0.116s0.215,0.039,0.292,0.116c0.077,0.077,0.116,0.177,0.116,0.3v5.416
		c0,0.123-0.039,0.223-0.116,0.3s-0.175,0.116-0.292,0.116s-0.216-0.04-0.296-0.12s-0.12-0.179-0.12-0.296V32.08h-3.712v2.384
		c0,0.117-0.039,0.216-0.116,0.296s-0.177,0.12-0.3,0.12C35.599,34.88,35.5,34.84,35.42,34.76z"/>
	<path style="fill:#FFFFFF;stroke:#FFFFFF;stroke-width:0.7;stroke-miterlimit:10;" d="M48.216,34.26
		c0.077,0.077,0.116,0.178,0.116,0.3v1.328c0,0.123-0.039,0.223-0.116,0.3s-0.177,0.116-0.3,0.116c-0.117,0-0.216-0.039-0.296-0.116
		s-0.12-0.177-0.12-0.3V34.88h-4.8v1.008c0,0.123-0.039,0.223-0.116,0.3s-0.178,0.116-0.3,0.116c-0.117,0-0.216-0.039-0.296-0.116
		s-0.12-0.177-0.12-0.3V34.56c0-0.122,0.04-0.223,0.12-0.3s0.179-0.116,0.296-0.116h0.24l2.191-5.231
		c0.08-0.187,0.211-0.28,0.393-0.28c0.191,0,0.322,0.093,0.392,0.28l2.192,5.231h0.224C48.039,34.144,48.139,34.183,48.216,34.26z
		 M45.116,29.832l-1.744,4.312h3.52L45.116,29.832z"/>
	<path style="fill:#FFFFFF;stroke:#FFFFFF;stroke-width:0.7;stroke-miterlimit:10;" d="M54.228,34.76
		c-0.08-0.08-0.12-0.179-0.12-0.296v-4.528l-3.824,4.799c-0.037,0.043-0.085,0.078-0.144,0.104s-0.117,0.04-0.176,0.04
		c-0.123,0-0.226-0.04-0.309-0.12s-0.124-0.179-0.124-0.296v-5.416c0-0.117,0.041-0.216,0.124-0.296s0.186-0.12,0.309-0.12
		c0.117,0,0.213,0.039,0.287,0.116c0.075,0.077,0.112,0.177,0.112,0.3v4.536l3.84-4.8c0.037-0.042,0.086-0.079,0.145-0.108
		s0.117-0.044,0.176-0.044c0.123,0,0.223,0.039,0.3,0.116c0.077,0.077,0.116,0.177,0.116,0.3v5.416c0,0.117-0.039,0.216-0.116,0.296
		s-0.177,0.12-0.3,0.12C54.406,34.88,54.308,34.84,54.228,34.76z"/>
	<path style="fill:#FFFFFF;stroke:#FFFFFF;stroke-width:0.7;stroke-miterlimit:10;" d="M60.816,28.748
		c0.077,0.077,0.116,0.177,0.116,0.3v5.416c0,0.117-0.039,0.216-0.116,0.296s-0.178,0.12-0.3,0.12c-0.117,0-0.216-0.04-0.296-0.12
		s-0.12-0.179-0.12-0.296v-1.992h-1.416l-1.368,2.208c-0.085,0.134-0.205,0.2-0.36,0.2c-0.122,0-0.22-0.036-0.292-0.107
		c-0.071-0.072-0.107-0.162-0.107-0.269c0-0.091,0.026-0.179,0.08-0.265l1.216-1.951c-0.405-0.123-0.726-0.333-0.96-0.632
		c-0.235-0.298-0.353-0.65-0.353-1.056c0-0.379,0.087-0.717,0.261-1.016c0.173-0.299,0.416-0.532,0.728-0.7
		c0.313-0.168,0.665-0.252,1.061-0.252h1.928C60.638,28.632,60.739,28.67,60.816,28.748z M60.1,29.4h-1.512
		c-0.374,0-0.675,0.104-0.904,0.312S57.34,30.216,57.34,30.6c0,0.357,0.114,0.636,0.344,0.836c0.229,0.2,0.53,0.3,0.904,0.3H60.1
		V29.4z"/>
</g>
</svg>
